<?xml version="1.0" encoding="UTF-8"?>
<svg version="1.1" xmlns="http://www.w3.org/2000/svg" width="48" height="48">
<path d="M0 0 C15.84 0 31.68 0 48 0 C48 15.84 48 31.68 48 48 C32.16 48 16.32 48 0 48 C0 32.16 0 16.32 0 0 Z " fill="#5177A7" transform="translate(0,0)"/>
<path d="M0 0 C13.53 0 27.06 0 41 0 C41 15.84 41 31.68 41 48 C38.03 48 35.06 48 32 48 C29.80689198 43.43102495 28.43817254 40.16881265 29 35 C29.33 34.21625 29.66 33.4325 30 32.625 C31.61613458 28.38264673 31.75625268 24.36448623 30.3828125 20.0703125 C28.28109154 15.73667548 25.57085958 13.63620578 21.21875 11.6875 C18.85718949 10.95574886 16.77619651 10.75639715 14.3125 10.625 C11.64388499 10.4541717 10.40054236 10.33068032 8.3203125 8.61328125 C6.9375 6.9375 6.9375 6.9375 5 4 C4.01 4.495 4.01 4.495 3 5 C2.01 3.35 1.02 1.7 0 0 Z " fill="#3A588A" transform="translate(7,0)"/>
<path d="M0 0 C3.87166124 0.04133446 5.85833058 0.10467541 9.3125 1.9375 C13.77392443 7.40634285 14.79631466 11.42893531 14.25 18.3125 C13.3125 20.9375 13.3125 20.9375 12.25 23.3125 C11.87406934 25.3049325 11.53020455 27.3043674 11.25 29.3125 C10.92 28.6525 10.59 27.9925 10.25 27.3125 C9.26 27.6425 8.27 27.9725 7.25 28.3125 C6.26 27.3225 5.27 26.3325 4.25 25.3125 C3.59 25.6425 2.93 25.9725 2.25 26.3125 C-3.44941954 26.86052111 -6.31532643 25.92211802 -10.75 22.3125 C-12.96477492 18.99033762 -13.04667707 17.76216677 -13.0625 13.875 C-13.07925781 12.92753906 -13.09601562 11.98007812 -13.11328125 11.00390625 C-12.69623861 7.91420324 -11.90744788 6.53293906 -9.75 4.3125 C-9.09 4.3125 -8.43 4.3125 -7.75 4.3125 C-7.42 3.3225 -7.09 2.3325 -6.75 1.3125 C-4.96066124 -0.47683876 -2.4198379 0.05606941 0 0 Z " fill="#6D9EDE" transform="translate(24.75,11.6875)"/>
<path d="M0 0 C3.5625 1 3.5625 1 6 3.1875 C7.83613413 6.49254144 8.03830309 8.2728758 7.5625 12 C6.5625 14.375 6.5625 14.375 5.5625 16 C2.67674181 15.60196439 1.74060487 15.20990931 -0.1875 12.9375 C-0.6 12.298125 -1.0125 11.65875 -1.4375 11 C-0.695 12.175625 -0.695 12.175625 0.0625 13.375 C1.5625 16 1.5625 16 1.5625 18 C-2.43524632 18.46485422 -3.98103115 18.34488758 -7.25 15.875 C-9.66763858 12.69753215 -10.35311533 10.96607945 -10.4375 7 C-9.5 4.625 -9.5 4.625 -8.4375 3 C-7.7775 3 -7.1175 3 -6.4375 3 C-6.045625 2.484375 -5.65375 1.96875 -5.25 1.4375 C-3.4375 0 -3.4375 0 0 0 Z " fill="#3F5C8D" transform="translate(25.4375,15)"/>
<path d="M0 0 C3.14116455 0.92050683 4.64568579 1.39245533 6.328125 4.27734375 C6.63234375 5.15519531 6.9365625 6.03304688 7.25 6.9375 C7.56453125 7.81277344 7.8790625 8.68804687 8.203125 9.58984375 C8.46609375 10.38519531 8.7290625 11.18054688 9 12 C9.33 12.99 9.66 13.98 10 15 C6.00225368 15.46485422 4.45646885 15.34488758 1.1875 12.875 C-1.23013858 9.69753215 -1.91561533 7.96607945 -2 4 C-1.0625 1.625 -1.0625 1.625 0 0 Z " fill="#496A9D" transform="translate(17,18)"/>
<path d="M0 0 C2.1875 -0.375 2.1875 -0.375 5 0 C9.64946074 4.7551303 11.2837762 8.13615724 11.234375 14.79296875 C10.84102495 18.49701501 9.46191109 21.58887413 8 25 C7.34 25 6.68 25 6 25 C5.87365551 19.4408423 5.87365551 19.4408423 6.54296875 17.10546875 C7.43457009 12.99800617 6.31866173 8.92428659 5 5 C3.48946326 2.87108728 2.07228038 1.63601082 0 0 Z " fill="#5988C8" transform="translate(28,13)"/>
<path d="M0 0 C1.65322266 0.01740234 1.65322266 0.01740234 3.33984375 0.03515625 C4.99693359 0.04869141 4.99693359 0.04869141 6.6875 0.0625 C7.54214844 0.07410156 8.39679687 0.08570313 9.27734375 0.09765625 C5.74609375 4.06640625 5.74609375 4.06640625 1.52734375 4.34765625 C0.45484375 4.26515625 -0.61765625 4.18265625 -1.72265625 4.09765625 C-2.05265625 5.08765625 -2.38265625 6.07765625 -2.72265625 7.09765625 C-3.38265625 6.76765625 -4.04265625 6.43765625 -4.72265625 6.09765625 C-5.05265625 7.41765625 -5.38265625 8.73765625 -5.72265625 10.09765625 C-6.38265625 10.09765625 -7.04265625 10.09765625 -7.72265625 10.09765625 C-7.72265625 13.39765625 -7.72265625 16.69765625 -7.72265625 20.09765625 C-8.38265625 19.76765625 -9.04265625 19.43765625 -9.72265625 19.09765625 C-9.80408552 17.34843485 -9.86204166 15.59811083 -9.91015625 13.84765625 C-9.94496094 12.873125 -9.97976563 11.89859375 -10.015625 10.89453125 C-9.68106409 7.70058974 -8.95599992 6.36885321 -6.72265625 4.09765625 C-6.06265625 4.09765625 -5.40265625 4.09765625 -4.72265625 4.09765625 C-4.39265625 3.10765625 -4.06265625 2.11765625 -3.72265625 1.09765625 C-2.72265625 0.09765625 -2.72265625 0.09765625 0 0 Z " fill="#6296E1" transform="translate(21.72265625,11.90234375)"/>
<path d="M0 0 C1.77155654 0.11429397 3.54226229 0.24183037 5.3125 0.375 C6.79169922 0.47941406 6.79169922 0.47941406 8.30078125 0.5859375 C11 1 11 1 14 3 C13.38511719 3.03738281 12.77023438 3.07476562 12.13671875 3.11328125 C10.92435547 3.21189453 10.92435547 3.21189453 9.6875 3.3125 C8.88699219 3.37050781 8.08648437 3.42851562 7.26171875 3.48828125 C4.63727666 4.08206694 3.69179328 4.95780294 2 7 C1.34 6.67 0.68 6.34 0 6 C0 4.02 0 2.04 0 0 Z " fill="#4B78C5" transform="translate(15,9)"/>
<path d="M0 0 C4.51720311 -0.36625971 4.51720311 -0.36625971 6.8125 1.375 C8 3 8 3 8 5 C4.20411134 4.45773019 2.52788007 2.79872437 0 0 Z " fill="#548BD6" transform="translate(28,13)"/>
<path d="M0 0 C0.680625 0.309375 1.36125 0.61875 2.0625 0.9375 C5.36965912 2.13370649 8.51545878 2.59005397 12 3 C12 3.33 12 3.66 12 4 C10.56589632 4.24954005 9.12739928 4.47392642 7.6875 4.6875 C6.88699219 4.81511719 6.08648437 4.94273438 5.26171875 5.07421875 C3 5 3 5 1.20703125 3.64453125 C0 2 0 2 0 0 Z " fill="#70A8E6" transform="translate(15,31)"/>
<path d="M0 0 C1.9375 0.8125 1.9375 0.8125 4 2 C4.33 2.99 4.66 3.98 5 5 C4.34 5 3.68 5 3 5 C2.67 5.66 2.34 6.32 2 7 C1.34 6.67 0.68 6.34 0 6 C0 4.02 0 2.04 0 0 Z " fill="#5385D4" transform="translate(15,9)"/>
</svg>
